STARTFONT 2.1
FONT -WRI-Mathematica4-Medium-R-Normal--36-360-75-75-p-250-Adobe-FontSpecific
SIZE 36 75 75
FONTBOUNDINGBOX 96 44 -3 -10
STARTPROPERTIES 16
FOUNDRY "WRI"
FAMILY_NAME "Mathematica4"
WEIGHT_NAME "Medium"
SLANT "R"
SETWIDTH_NAME "Normal"
PIXEL_SIZE 36
POINT_SIZE 360
RESOLUTION_X 75
RESOLUTION_Y 75
SPACING "p"
AVERAGE_WIDTH 250
CHARSET_REGISTRY "Adobe"
CHARSET_ENCODING "FontSpecific"
FONT_DESCENT 10
FONT_ASCENT 34
DEFAULT_CHAR 32
ENDPROPERTIES
CHARS 224
STARTCHAR Space
ENCODING 32
SWIDTH 189 0
DWIDTH 7 0
BBX 0 0 0 0
BITMAP
ENDCHAR
STARTCHAR RArrowBar
ENCODING 33
SWIDTH 875 0
DWIDTH 31 0
BBX 26 14 3 2
BITMAP
000040c0
0000e0c0
000070c0
000038c0
00001cc0
00000ec0
ffffffc0
ffffffc0
00000ec0
00001cc0
000038c0
000070c0
0000e0c0
000040c0
ENDCHAR
STARTCHAR LTackArrow
ENCODING 34
SWIDTH 874 0
DWIDTH 31 0
BBX 26 14 3 2
BITMAP
020000c0
060000c0
0c0000c0
180000c0
380000c0
700000c0
ffffffc0
ffffffc0
700000c0
380000c0
180000c0
0c0000c0
060000c0
020000c0
ENDCHAR
STARTCHAR RTackArrow
ENCODING 35
SWIDTH 874 0
DWIDTH 31 0
BBX 27 14 2 2
BITMAP
c0000800
c0001c00
c0000e00
c0000700
c0000380
c00001c0
ffffffe0
ffffffe0
c00001c0
c0000380
c0000700
c0000e00
c0001c00
c0000800
ENDCHAR
STARTCHAR UpArrowBar
ENCODING 36
SWIDTH 533 0
DWIDTH 19 0
BBX 16 27 2 0
BITMAP
ffff
ffff
0180
03c0
07e0
0ff0
1db8
399c
6186
c183
0180
0180
0180
0180
0180
0180
0180
0180
0180
0180
0180
0180
0180
0180
0180
0180
0180
ENDCHAR
STARTCHAR DownArrowBar
ENCODING 37
SWIDTH 533 0
DWIDTH 19 0
BBX 16 27 2 0
BITMAP
0180
0180
0180
0180
0180
0180
0180
0180
0180
0180
0180
0180
0180
0180
0180
0180
0180
c183
6186
399c
1db8
0ff0
07e0
03c0
0180
ffff
ffff
ENDCHAR
STARTCHAR UpTackArrow
ENCODING 38
SWIDTH 533 0
DWIDTH 19 0
BBX 16 27 2 0
BITMAP
0180
03c0
07e0
0ff0
1db8
399c
6186
c183
0180
0180
0180
0180
0180
0180
0180
0180
0180
0180
0180
0180
0180
0180
0180
0180
0180
ffff
ffff
ENDCHAR
STARTCHAR DownTackArrow
ENCODING 39
SWIDTH 533 0
DWIDTH 19 0
BBX 16 27 2 0
BITMAP
ffff
ffff
0180
0180
0180
0180
0180
0180
0180
0180
0180
0180
0180
0180
0180
0180
0180
0180
0180
c183
6186
399c
1db8
0ff0
07e0
03c0
0180
ENDCHAR
STARTCHAR LVectorBar
ENCODING 40
SWIDTH 875 0
DWIDTH 31 0
BBX 27 14 2 2
BITMAP
c0200000
c0600000
c0c00000
c1800000
c3000000
c6000000
cfffffe0
ffffffe0
c0000000
c0000000
c0000000
c0000000
c0000000
c0000000
ENDCHAR
STARTCHAR RVectorBar
ENCODING 41
SWIDTH 875 0
DWIDTH 31 0
BBX 26 14 3 2
BITMAP
000080c0
0001c0c0
0000e0c0
000070c0
000038c0
00001cc0
fffffec0
ffffffc0
000000c0
000000c0
000000c0
000000c0
000000c0
000000c0
ENDCHAR
STARTCHAR DownLVectorBar
ENCODING 42
SWIDTH 875 0
DWIDTH 31 0
BBX 27 14 2 2
BITMAP
c0000000
c0000000
c0000000
c0000000
c0000000
c0000000
ffffffe0
cfffffe0
c6000000
c3000000
c1800000
c0c00000
c0600000
c0200000
ENDCHAR
STARTCHAR DownRVectorBar
ENCODING 43
SWIDTH 875 0
DWIDTH 31 0
BBX 26 14 3 2
BITMAP
000000c0
000000c0
000000c0
000000c0
000000c0
000000c0
ffffffc0
fffffec0
00001cc0
000038c0
000070c0
0000e0c0
0001c0c0
000080c0
ENDCHAR
STARTCHAR LTackVector
ENCODING 44
SWIDTH 875 0
DWIDTH 31 0
BBX 26 14 3 2
BITMAP
010000c0
030000c0
060000c0
0c0000c0
180000c0
380000c0
7fffffc0
ffffffc0
000000c0
000000c0
000000c0
000000c0
000000c0
000000c0
ENDCHAR
STARTCHAR RTackVector
ENCODING 45
SWIDTH 875 0
DWIDTH 31 0
BBX 27 14 2 2
BITMAP
c0001000
c0003800
c0001c00
c0000e00
c0000700
c0000380
ffffffc0
ffffffe0
c0000000
c0000000
c0000000
c0000000
c0000000
c0000000
ENDCHAR
STARTCHAR DownLTackVector
ENCODING 46
SWIDTH 875 0
DWIDTH 31 0
BBX 26 14 3 2
BITMAP
000000c0
000000c0
000000c0
000000c0
000000c0
000000c0
ffffffc0
7fffffc0
380000c0
180000c0
0c0000c0
060000c0
030000c0
010000c0
ENDCHAR
STARTCHAR DownRTackVector
ENCODING 47
SWIDTH 875 0
DWIDTH 31 0
BBX 27 14 2 2
BITMAP
c0000000
c0000000
c0000000
c0000000
c0000000
c0000000
ffffffe0
ffffffc0
c0000380
c0000700
c0000e00
c0001c00
c0003800
c0001000
ENDCHAR
STARTCHAR LVector
ENCODING 48
SWIDTH 820 0
DWIDTH 30 0
BBX 24 9 3 8
BITMAP
010000
030000
070000
0e0000
0c0000
180000
380000
7fffff
ffffff
ENDCHAR
STARTCHAR RVector
ENCODING 49
SWIDTH 820 0
DWIDTH 30 0
BBX 24 9 3 8
BITMAP
000080
0000c0
0000e0
000070
000030
000018
00001c
fffffe
ffffff
ENDCHAR
STARTCHAR LRVector
ENCODING 50
SWIDTH 974 0
DWIDTH 35 0
BBX 30 9 3 8
BITMAP
01000200
03800700
07000380
06000180
0c0000c0
1c0000e0
38000070
7ffffff8
fffffffc
ENDCHAR
STARTCHAR DownLVector
ENCODING 51
SWIDTH 820 0
DWIDTH 30 0
BBX 24 8 3 2
BITMAP
ffffff
7fffff
380000
1c0000
0c0000
060000
030000
010000
ENDCHAR
STARTCHAR DownRVector
ENCODING 52
SWIDTH 820 0
DWIDTH 30 0
BBX 24 8 3 2
BITMAP
ffffff
fffffe
00001c
000038
000030
000060
0000c0
000080
ENDCHAR
STARTCHAR DownLRVector
ENCODING 53
SWIDTH 974 0
DWIDTH 35 0
BBX 30 8 3 2
BITMAP
fffffffc
7ffffff8
38000070
1c0000e0
0e0001c0
07000380
03800700
01000200
ENDCHAR
STARTCHAR LUpDownVector
ENCODING 54
SWIDTH 373 0
DWIDTH 13 0
BBX 8 31 3 0
BITMAP
01
03
07
0f
1f
3b
73
e3
83
03
03
03
03
03
03
03
03
03
03
03
03
03
83
e3
73
3b
1f
0f
07
03
01
ENDCHAR
STARTCHAR RUpDownVector
ENCODING 55
SWIDTH 373 0
DWIDTH 13 0
BBX 8 31 3 0
BITMAP
80
c0
e0
f0
f8
dc
ce
c7
c1
c0
c0
c0
c0
c0
c0
c0
c0
c0
c0
c0
c0
c0
c1
c7
ce
dc
f8
f0
e0
c0
80
ENDCHAR
STARTCHAR LUpVectorBar
ENCODING 56
SWIDTH 533 0
DWIDTH 19 0
BBX 16 27 2 0
BITMAP
ffff
ffff
0080
0180
0380
0780
0f80
1d80
3980
e180
4180
0180
0180
0180
0180
0180
0180
0180
0180
0180
0180
0180
0180
0180
0180
0180
0180
ENDCHAR
STARTCHAR LDownVectorBar
ENCODING 57
SWIDTH 533 0
DWIDTH 19 0
BBX 16 27 2 0
BITMAP
0180
0180
0180
0180
0180
0180
0180
0180
0180
0180
0180
0180
0180
0180
0180
0180
4180
e180
3980
1d80
0f80
0780
0380
0180
0080
ffff
ffff
ENDCHAR
STARTCHAR RUpVectorBar
ENCODING 58
SWIDTH 533 0
DWIDTH 19 0
BBX 16 27 2 0
BITMAP
ffff
ffff
0100
0180
01c0
01e0
01f0
01b8
019c
0187
0182
0180
0180
0180
0180
0180
0180
0180
0180
0180
0180
0180
0180
0180
0180
0180
0180
ENDCHAR
STARTCHAR RDownVectorBar
ENCODING 59
SWIDTH 533 0
DWIDTH 19 0
BBX 16 27 2 0
BITMAP
0180
0180
0180
0180
0180
0180
0180
0180
0180
0180
0180
0180
0180
0180
0180
0180
0182
0187
019c
01b8
01f0
01e0
01c0
0180
0100
ffff
ffff
ENDCHAR
STARTCHAR LUpTackVector
ENCODING 60
SWIDTH 533 0
DWIDTH 19 0
BBX 16 27 2 0
BITMAP
0080
0180
0380
0780
0f80
1d80
3980
e180
4180
0180
0180
0180
0180
0180
0180
0180
0180
0180
0180
0180
0180
0180
0180
0180
0180
ffff
ffff
ENDCHAR
STARTCHAR LDownTackVector
ENCODING 61
SWIDTH 533 0
DWIDTH 19 0
BBX 16 27 2 0
BITMAP
ffff
ffff
0180
0180
0180
0180
0180
0180
0180
0180
0180
0180
0180
0180
0180
0180
0180
0180
4180
e180
3980
1d80
0f80
0780
0380
0180
0080
ENDCHAR
STARTCHAR RUpTackVector
ENCODING 62
SWIDTH 533 0
DWIDTH 19 0
BBX 16 27 2 0
BITMAP
0100
0180
01c0
01e0
01f0
01b8
019c
0187
0182
0180
0180
0180
0180
0180
0180
0180
0180
0180
0180
0180
0180
0180
0180
0180
0180
ffff
ffff
ENDCHAR
STARTCHAR RDownTackVector
ENCODING 63
SWIDTH 533 0
DWIDTH 19 0
BBX 16 27 2 0
BITMAP
ffff
ffff
0180
0180
0180
0180
0180
0180
0180
0180
0180
0180
0180
0180
0180
0180
0180
0180
0182
0187
019c
01b8
01f0
01e0
01c0
0180
0100
ENDCHAR
STARTCHAR LUpVector
ENCODING 64
SWIDTH 373 0
DWIDTH 13 0
BBX 8 25 3 0
BITMAP
01
03
07
0f
1f
3b
73
e3
83
03
03
03
03
03
03
03
03
03
03
03
03
03
03
03
03
ENDCHAR
STARTCHAR ExtensUp1
ENCODING 65
SWIDTH 533 0
DWIDTH 19 0
BBX 2 11 9 0
BITMAP
c0
c0
c0
c0
c0
c0
c0
c0
c0
c0
c0
ENDCHAR
STARTCHAR LDownVector
ENCODING 66
SWIDTH 373 0
DWIDTH 13 0
BBX 8 25 3 0
BITMAP
03
03
03
03
03
03
03
03
03
03
03
03
03
03
03
03
83
e3
73
3b
1f
0f
07
03
01
ENDCHAR
STARTCHAR RUpVector
ENCODING 67
SWIDTH 373 0
DWIDTH 13 0
BBX 8 25 3 0
BITMAP
80
c0
e0
f0
f8
dc
ce
c7
c1
c0
c0
c0
c0
c0
c0
c0
c0
c0
c0
c0
c0
c0
c0
c0
c0
ENDCHAR
STARTCHAR ExtensUp2
ENCODING 68
SWIDTH 373 0
DWIDTH 13 0
BBX 2 11 3 0
BITMAP
c0
c0
c0
c0
c0
c0
c0
c0
c0
c0
c0
ENDCHAR
STARTCHAR RDownVector
ENCODING 69
SWIDTH 373 0
DWIDTH 13 0
BBX 8 25 3 0
BITMAP
c0
c0
c0
c0
c0
c0
c0
c0
c0
c0
c0
c0
c0
c0
c0
c0
c1
c7
ce
dc
f8
f0
e0
c0
80
ENDCHAR
STARTCHAR Equilibrium
ENCODING 70
SWIDTH 822 0
DWIDTH 30 0
BBX 24 22 3 -2
BITMAP
000080
0000c0
000060
000030
000038
00001c
fffffe
ffffff
000000
000000
000000
000000
000000
000000
ffffff
7fffff
380000
1c0000
0c0000
060000
030000
010000
ENDCHAR
STARTCHAR RvrsEquilibrium
ENCODING 71
SWIDTH 822 0
DWIDTH 30 0
BBX 24 22 3 -2
BITMAP
010000
030000
060000
0c0000
1c0000
380000
7fffff
ffffff
000000
000000
000000
000000
000000
000000
ffffff
fffffe
00001c
000038
000030
000060
0000c0
000080
ENDCHAR
STARTCHAR EquilbrmHeadL
ENCODING 72
SWIDTH 314 0
DWIDTH 11 0
BBX 9 16 2 -2
BITMAP
ff80
ff80
0000
0000
0000
0000
0000
0000
ff80
7f80
3800
1c00
0e00
0700
0380
0100
ENDCHAR
STARTCHAR EquilbrmheadR
ENCODING 73
SWIDTH 318 0
DWIDTH 11 0
BBX 9 16 0 4
BITMAP
4000
e000
7000
3800
1c00
0e00
ff00
ff80
0000
0000
0000
0000
0000
0000
ff80
ff80
ENDCHAR
STARTCHAR RvrsEquilbrmHeadL
ENCODING 74
SWIDTH 314 0
DWIDTH 11 0
BBX 9 16 2 4
BITMAP
0100
0380
0700
0e00
1c00
3800
7f80
ff80
0000
0000
0000
0000
0000
0000
ff80
ff80
ENDCHAR
STARTCHAR RvrsEquilbrmHeadR
ENCODING 75
SWIDTH 314 0
DWIDTH 11 0
BBX 9 16 0 -2
BITMAP
ff80
ff80
0000
0000
0000
0000
0000
0000
ff80
ff00
0e00
1c00
3800
7000
e000
4000
ENDCHAR
STARTCHAR UpEquilibrium
ENCODING 76
SWIDTH 736 0
DWIDTH 26 0
BBX 21 25 3 0
BITMAP
010600
030600
070600
0f0600
1f0600
3b0600
730600
e30600
830600
030600
030600
030600
030600
030600
030600
030600
030608
030638
030670
0306e0
0307c0
030780
030700
030600
030400
ENDCHAR
STARTCHAR RvrsUpEquilibrium
ENCODING 77
SWIDTH 736 0
DWIDTH 26 0
BBX 21 25 3 0
BITMAP
030400
030600
030700
030780
0307c0
0306e0
030670
030638
030608
030600
030600
030600
030600
030600
030600
030600
830600
e30600
730600
3b0600
1f0600
0f0600
070600
030600
010600
ENDCHAR
STARTCHAR LArrowHookUp
ENCODING 78
SWIDTH 822 0
DWIDTH 30 0
BBX 24 15 3 2
BITMAP
00007c
02007e
060007
0c0003
180003
300003
700007
fffffe
fffff8
700000
300000
180000
0c0000
060000
020000
ENDCHAR
STARTCHAR RArrowHookUp
ENCODING 79
SWIDTH 822 0
DWIDTH 30 0
BBX 25 15 2 2
BITMAP
3e000000
7e002000
e0007000
c0003800
c0001c00
c0000e00
e0000700
7fffff80
1fffff80
00000700
00000e00
00001c00
00003800
00007000
00002000
ENDCHAR
STARTCHAR LArrow
ENCODING 80
SWIDTH 822 0
DWIDTH 30 0
BBX 24 15 3 2
BITMAP
020000
070000
0e0000
0c0000
180000
300000
700000
ffffff
ffffff
700000
380000
1c0000
0c0000
070000
020000
ENDCHAR
STARTCHAR Extens
ENCODING 81
SWIDTH 324 0
DWIDTH 12 0
BBX 11 2 0 8
BITMAP
ffe0
ffe0
ENDCHAR
STARTCHAR LeftTackBase
ENCODING 82
SWIDTH 166 0
DWIDTH 6 0
BBX 4 14 0 2
BITMAP
30
30
30
30
30
30
f0
f0
30
30
30
30
30
30
ENDCHAR
STARTCHAR RightTackBase
ENCODING 83
SWIDTH 166 0
DWIDTH 6 0
BBX 4 14 2 2
BITMAP
c0
c0
c0
c0
c0
c0
f0
f0
c0
c0
c0
c0
c0
c0
ENDCHAR
STARTCHAR RArrow
ENCODING 84
SWIDTH 822 0
DWIDTH 30 0
BBX 24 15 3 2
BITMAP
000040
0000e0
000070
000030
000018
00000c
00000e
ffffff
ffffff
00000e
00001c
000038
000030
0000e0
000040
ENDCHAR
STARTCHAR RUpVector2
ENCODING 85
SWIDTH 533 0
DWIDTH 19 0
BBX 8 25 9 0
BITMAP
80
c0
e0
f0
f8
dc
ce
c7
c1
c0
c0
c0
c0
c0
c0
c0
c0
c0
c0
c0
c0
c0
c0
c0
c0
ENDCHAR
STARTCHAR RArrowLArrow
ENCODING 86
SWIDTH 822 0
DWIDTH 30 0
BBX 24 18 3 0
BITMAP
000010
000038
00001c
00000e
ffffff
ffffff
00000e
08000c
1c0018
180038
300010
700000
ffffff
ffffff
700000
380000
1c0000
080000
ENDCHAR
STARTCHAR LArrowRArrow
ENCODING 87
SWIDTH 822 0
DWIDTH 30 0
BBX 24 18 3 0
BITMAP
080000
1c0000
380000
700000
ffffff
ffffff
700000
300010
180038
1c0018
08000c
00000e
ffffff
ffffff
00000e
00001c
000038
000010
ENDCHAR
STARTCHAR RArrowLArrowHeadL
ENCODING 88
SWIDTH 239 0
DWIDTH 9 0
BBX 7 14 2 0
BITMAP
7e
7e
00
04
0e
1c
38
70
fe
7e
30
18
0e
04
ENDCHAR
STARTCHAR RArrowLArrowHeadR
ENCODING 89
SWIDTH 239 0
DWIDTH 9 0
BBX 7 14 0 4
BITMAP
40
e0
30
18
fc
fe
18
38
70
e0
40
00
fc
fc
ENDCHAR
STARTCHAR LArrowRArrowHeadL
ENCODING 90
SWIDTH 239 0
DWIDTH 9 0
BBX 7 14 0 0
BITMAP
fc
fc
00
40
e0
70
38
18
fe
fc
18
30
e0
40
ENDCHAR
STARTCHAR LArrowRArrowHeadR
ENCODING 91
SWIDTH 239 0
DWIDTH 9 0
BBX 7 14 2 4
BITMAP
04
0e
18
30
7e
fe
70
38
1c
0e
04
00
7e
7e
ENDCHAR
STARTCHAR UpArrowDownArrow
ENCODING 92
SWIDTH 629 0
DWIDTH 23 0
BBX 18 24 3 0
BITMAP
0c0000
1e1800
3f1800
7f9800
edd800
8cd800
0c1800
0c1800
0c1800
0c1800
0c1800
0c1800
0c1800
0c1800
0c1800
0c1800
0c1800
0c1800
0d98c0
0ddb80
0cff00
0c7e00
0c3c00
001800
ENDCHAR
STARTCHAR DownArrowUpArrow
ENCODING 93
SWIDTH 629 0
DWIDTH 23 0
BBX 18 24 3 0
BITMAP
001800
0c3c00
0c7e00
0cff00
0ddb80
0d98c0
0c1800
0c1800
0c1800
0c1800
0c1800
0c1800
0c1800
0c1800
0c1800
0c1800
0c1800
0c1800
8cd800
edd800
7f9800
3f1800
1e1800
0c0000
ENDCHAR
STARTCHAR VertExt1
ENCODING 94
SWIDTH 46 0
DWIDTH 2 0
BBX 2 7 0 0
BITMAP
c0
c0
c0
c0
c0
c0
c0
ENDCHAR
STARTCHAR HorizExt1
ENCODING 95
SWIDTH 200 0
DWIDTH 7 0
BBX 7 2 0 0
BITMAP
fe
fe
ENDCHAR
STARTCHAR UpArrow
ENCODING 96
SWIDTH 533 0
DWIDTH 19 0
BBX 14 25 3 0
BITMAP
0200
0780
0fc0
1fe0
3b70
7338
e31c
830c
0300
0300
0300
0300
0300
0300
0300
0300
0300
0300
0300
0300
0300
0300
0300
0300
0300
ENDCHAR
STARTCHAR UpTackBase
ENCODING 97
SWIDTH 533 0
DWIDTH 19 0
BBX 16 4 2 0
BITMAP
0180
0180
ffff
ffff
ENDCHAR
STARTCHAR DownTackBase
ENCODING 98
SWIDTH 533 0
DWIDTH 19 0
BBX 16 4 2 0
BITMAP
ffff
ffff
0180
0180
ENDCHAR
STARTCHAR DownArrow
ENCODING 99
SWIDTH 533 0
DWIDTH 19 0
BBX 14 25 3 0
BITMAP
0300
0300
0300
0300
0300
0300
0300
0300
0300
0300
0300
0300
0300
0300
0300
0300
0300
830c
e31c
7338
3b70
1fe0
0fc0
0780
0200
ENDCHAR
STARTCHAR RDownVector2
ENCODING 100
SWIDTH 533 0
DWIDTH 19 0
BBX 8 25 9 0
BITMAP
c0
c0
c0
c0
c0
c0
c0
c0
c0
c0
c0
c0
c0
c0
c0
c0
c1
c7
ce
dc
f8
f0
e0
c0
80
ENDCHAR
STARTCHAR UpEquilbrmHeadBttm
ENCODING 101
SWIDTH 615 0
DWIDTH 22 0
BBX 16 9 4 0
BITMAP
c182
c187
c19c
c1b8
c1f0
c1e0
c1c0
c180
c100
ENDCHAR
STARTCHAR DblUpExtens2
ENCODING 102
SWIDTH 615 0
DWIDTH 22 0
BBX 9 11 4 0
BITMAP
c180
c180
c180
c180
c180
c180
c180
c180
c180
c180
c180
ENDCHAR
STARTCHAR RvrsUpEquilHdTop
ENCODING 103
SWIDTH 615 0
DWIDTH 22 0
BBX 16 9 4 0
BITMAP
c100
c180
c1c0
c1e0
c1f0
c1b8
c19c
c187
c182
ENDCHAR
STARTCHAR UpEquilbrmHeadTop
ENCODING 104
SWIDTH 629 0
DWIDTH 23 0
BBX 15 9 1 0
BITMAP
0106
0306
0706
0f06
1f06
3b06
7306
e306
8306
ENDCHAR
STARTCHAR DblUpExtens1
ENCODING 105
SWIDTH 629 0
DWIDTH 23 0
BBX 9 11 7 0
BITMAP
c180
c180
c180
c180
c180
c180
c180
c180
c180
c180
c180
ENDCHAR
STARTCHAR RvrsUpEquilibrmHdBttm
ENCODING 106
SWIDTH 629 0
DWIDTH 23 0
BBX 15 9 1 0
BITMAP
8306
e306
7306
3b06
1f06
0f06
0706
0306
0106
ENDCHAR
STARTCHAR UpArrwDwnArrwBttm
ENCODING 107
SWIDTH 629 0
DWIDTH 23 0
BBX 13 6 7 0
BITMAP
c988
d998
cff0
c7e0
c3c0
0180
ENDCHAR
STARTCHAR DwnArrwUpArrwTop
ENCODING 108
SWIDTH 629 0
DWIDTH 23 0
BBX 13 7 7 0
BITMAP
0080
c180
c3c0
c7e0
cdb0
d998
c988
ENDCHAR
STARTCHAR UpArrwDwnArrwTop
ENCODING 109
SWIDTH 629 0
DWIDTH 23 0
BBX 13 7 3 0
BITMAP
0800
1c18
3e18
7f18
6d98
ccd8
4c58
ENDCHAR
STARTCHAR DwnArrwUpArrwBttm
ENCODING 110
SWIDTH 629 0
DWIDTH 23 0
BBX 13 6 3 0
BITMAP
4c58
ccd8
7f98
3f18
1e18
0c00
ENDCHAR
STARTCHAR DblExtens
ENCODING 111
SWIDTH 324 0
DWIDTH 12 0
BBX 11 10 0 4
BITMAP
ffe0
ffe0
0000
0000
0000
0000
0000
0000
ffe0
ffe0
ENDCHAR
STARTCHAR OverBracket1
ENCODING 112
SWIDTH 800 0
DWIDTH 29 0
BBX 29 5 0 0
BITMAP
fffffff8
fffffff8
c0000018
80000008
80000008
ENDCHAR
STARTCHAR OverBracket2
ENCODING 113
SWIDTH 1050 0
DWIDTH 38 0
BBX 38 5 0 0
BITMAP
fffffffffc
fffffffffc
c00000000c
8000000004
8000000004
ENDCHAR
STARTCHAR OverBracket3
ENCODING 114
SWIDTH 1400 0
DWIDTH 50 0
BBX 50 5 0 0
BITMAP
ffffffffffffc0
ffffffffffffc0
c00000000000c0
80000000000040
80000000000040
ENDCHAR
STARTCHAR OverBracket4
ENCODING 115
SWIDTH 1750 0
DWIDTH 63 0
BBX 63 5 0 0
BITMAP
fffffffffffffffe
fffffffffffffffe
c000000000000006
8000000000000002
8000000000000002
ENDCHAR
STARTCHAR OverBracketExt1
ENCODING 116
SWIDTH 200 0
DWIDTH 7 0
BBX 7 5 0 0
BITMAP
fe
fe
c0
80
80
ENDCHAR
STARTCHAR OverBracketExt2
ENCODING 117
SWIDTH 200 0
DWIDTH 7 0
BBX 7 2 0 3
BITMAP
fe
fe
ENDCHAR
STARTCHAR OverBracketExt3
ENCODING 118
SWIDTH 200 0
DWIDTH 7 0
BBX 7 5 0 0
BITMAP
fe
fe
06
02
02
ENDCHAR
STARTCHAR ShortUpArrow
ENCODING 119
SWIDTH 533 0
DWIDTH 19 0
BBX 14 17 3 0
BITMAP
0100
0780
0fc0
1fe0
3b70
7338
e31c
8304
0300
0300
0300
0300
0300
0300
0300
0300
0300
ENDCHAR
STARTCHAR ShortDownArrow
ENCODING 120
SWIDTH 533 0
DWIDTH 19 0
BBX 14 17 3 0
BITMAP
0300
0300
0300
0300
0300
0300
0300
0300
0300
8304
e31c
7338
3b70
1fe0
0fc0
0780
0100
ENDCHAR
STARTCHAR ShortLArrow
ENCODING 121
SWIDTH 602 0
DWIDTH 22 0
BBX 16 15 3 2
BITMAP
0200
0600
0e00
1c00
1800
3000
7000
ffff
ffff
7000
3800
1800
0c00
0600
0200
ENDCHAR
STARTCHAR ShortRArrow
ENCODING 122
SWIDTH 602 0
DWIDTH 22 0
BBX 16 15 3 2
BITMAP
0040
0060
0070
0038
0018
000c
000e
ffff
ffff
000e
001c
0018
0030
0060
0040
ENDCHAR
STARTCHAR LArrowBar
ENCODING 123
SWIDTH 875 0
DWIDTH 31 0
BBX 27 14 2 2
BITMAP
c0400000
c0c00000
c1800000
c3000000
c6000000
cc000000
ffffffe0
dfffffe0
cc000000
c6000000
c3000000
c1800000
c0c00000
c0400000
ENDCHAR
STARTCHAR Dash
ENCODING 124
SWIDTH 380 0
DWIDTH 14 0
BBX 11 2 1 8
BITMAP
ffe0
ffe0
ENDCHAR
STARTCHAR LongDash
ENCODING 125
SWIDTH 530 0
DWIDTH 19 0
BBX 15 2 2 8
BITMAP
fffe
fffe
ENDCHAR
STARTCHAR DivisionBarExtens
ENCODING 126
SWIDTH 980 0
DWIDTH 35 0
BBX 32 2 2 8
BITMAP
ffffffff
ffffffff
ENDCHAR
STARTCHAR DEL
ENCODING 127
SWIDTH 189 0
DWIDTH 7 0
BBX 0 0 0 0
BITMAP
ENDCHAR
STARTCHAR UnderBracket1
ENCODING 128
SWIDTH 800 0
DWIDTH 29 0
BBX 29 5 0 0
BITMAP
80000008
80000008
c0000018
fffffff8
fffffff8
ENDCHAR
STARTCHAR UnderBracket2
ENCODING 129
SWIDTH 1050 0
DWIDTH 38 0
BBX 38 5 0 0
BITMAP
8000000004
8000000004
c00000000c
fffffffffc
fffffffffc
ENDCHAR
STARTCHAR UnderBracket3
ENCODING 130
SWIDTH 1400 0
DWIDTH 50 0
BBX 50 5 0 0
BITMAP
80000000000040
80000000000040
c00000000000c0
ffffffffffffc0
ffffffffffffc0
ENDCHAR
STARTCHAR UnderBracket4
ENCODING 131
SWIDTH 1750 0
DWIDTH 63 0
BBX 63 5 0 0
BITMAP
8000000000000002
8000000000000002
c000000000000006
fffffffffffffffe
fffffffffffffffe
ENDCHAR
STARTCHAR UnderBracketExt1
ENCODING 132
SWIDTH 200 0
DWIDTH 7 0
BBX 7 5 0 0
BITMAP
80
80
c0
fe
fe
ENDCHAR
STARTCHAR UnderBracketExt2
ENCODING 133
SWIDTH 200 0
DWIDTH 7 0
BBX 7 2 0 0
BITMAP
fe
fe
ENDCHAR
STARTCHAR UnderBracketExt3
ENCODING 134
SWIDTH 200 0
DWIDTH 7 0
BBX 7 5 0 0
BITMAP
02
02
06
fe
fe
ENDCHAR
STARTCHAR LowerLeftArrow
ENCODING 135
SWIDTH 707 0
DWIDTH 25 0
BBX 21 21 2 0
BITMAP
000010
000038
000070
0000e0
0001c0
000380
000700
000e00
001c00
003800
007000
c0e000
c18000
c30000
c60000
cc0000
d80000
f00000
f00000
ffc000
ffc000
ENDCHAR
STARTCHAR UpperLeftArrow
ENCODING 136
SWIDTH 707 0
DWIDTH 25 0
BBX 21 21 2 0
BITMAP
ffc000
ffc000
f00000
f80000
dc0000
ce0000
c70000
c38000
c1c000
c0e000
007000
003800
001c00
000e00
000700
000380
0001c0
0000e0
000070
000038
000010
ENDCHAR
STARTCHAR UpperRightArrow
ENCODING 137
SWIDTH 707 0
DWIDTH 25 0
BBX 20 21 3 0
BITMAP
003ff0
003ff0
0000f0
0001f0
000330
000630
000c30
001830
003030
007030
00e000
01c000
038000
070000
0e0000
0c0000
180000
300000
600000
c00000
800000
ENDCHAR
STARTCHAR LowerRightArrow
ENCODING 138
SWIDTH 707 0
DWIDTH 25 0
BBX 20 21 3 0
BITMAP
800000
c00000
600000
300000
180000
0c0000
060000
030000
018000
00c000
006000
007030
003830
001c30
000e30
000730
0003b0
0001f0
0000f0
003ff0
003ff0
ENDCHAR
STARTCHAR LongLowerLeftArrow
ENCODING 139
SWIDTH 1193 0
DWIDTH 43 0
BBX 39 38 2 -7
BITMAP
0000000006
000000000e
000000001c
0000000038
0000000070
00000000e0
00000001c0
0000000380
0000000700
0000000e00
0000001800
0000003000
0000006000
000000c000
0000018000
0000030000
0000060000
00000c0000
0000180000
0000300000
0000600000
0001c00000
0003800000
0007000000
000e000000
001c000000
0038000000
0070000000
c0e0000000
c180000000
c300000000
c600000000
cc00000000
d800000000
f000000000
f000000000
ffc0000000
ffc0000000
ENDCHAR
STARTCHAR LongUpperLeftArrow
ENCODING 140
SWIDTH 1193 0
DWIDTH 43 0
BBX 39 38 2 -7
BITMAP
ffc0000000
ffc0000000
f000000000
f800000000
dc00000000
ce00000000
c700000000
c380000000
c0c0000000
c060000000
0030000000
0018000000
000c000000
0006000000
0003000000
0001800000
0000c00000
0000600000
0000300000
0000180000
00000c0000
0000060000
0000030000
0000018000
000000c000
0000007000
0000003800
0000001c00
0000000e00
0000000700
0000000380
00000001c0
00000000e0
0000000070
0000000038
000000001c
000000000e
0000000006
ENDCHAR
STARTCHAR LongUpperRightArrow
ENCODING 141
SWIDTH 1193 0
DWIDTH 43 0
BBX 38 38 3 -7
BITMAP
0000000ffc
0000000ffc
000000003c
000000007c
00000000cc
000000018c
000000030c
000000060c
0000000c0c
000000180c
0000003000
0000006000
000000c000
0000018000
0000030000
0000060000
00000c0000
0000180000
0000300000
0000600000
0000c00000
0001800000
0003000000
0006000000
000c000000
0018000000
0030000000
0060000000
00c0000000
0180000000
0300000000
0600000000
0c00000000
1800000000
3000000000
6000000000
c000000000
8000000000
ENDCHAR
STARTCHAR LongLowerRightArrow
ENCODING 142
SWIDTH 1193 0
DWIDTH 43 0
BBX 38 38 3 -7
BITMAP
8000000000
c000000000
6000000000
3000000000
1800000000
0c00000000
0600000000
0300000000
0180000000
00c0000000
0060000000
0030000000
0018000000
000c000000
0007000000
0003800000
0001c00000
0000e00000
0000700000
0000380000
00001c0000
00000e0000
0000070000
0000038000
000001c000
000000e000
0000007000
0000003800
0000001c0c
0000000e0c
000000070c
000000038c
00000001cc
00000000ec
000000007c
000000003c
0000000ffc
0000000ffc
ENDCHAR
STARTCHAR Arrowhead
ENCODING 143
SWIDTH 410 0
DWIDTH 15 0
BBX 10 10 2 0
BITMAP
c000
c000
c000
c000
c000
c000
c000
f000
ffc0
ffc0
ENDCHAR
STARTCHAR OverParen1
ENCODING 144
SWIDTH 700 0
DWIDTH 25 0
BBX 24 5 0 0
BITMAP
01ff80
0ffff0
3ffffc
60000e
800001
ENDCHAR
STARTCHAR OverParen2
ENCODING 145
SWIDTH 1050 0
DWIDTH 38 0
BBX 37 5 0 0
BITMAP
01fffffc00
0fffffff80
3fffffffe0
7000000070
8000000008
ENDCHAR
STARTCHAR OverParen3
ENCODING 146
SWIDTH 1400 0
DWIDTH 50 0
BBX 50 5 0 0
BITMAP
01ffffffffe000
0ffffffffffc00
3fffffffffff00
70000000000380
80000000000040
ENDCHAR
STARTCHAR OverParen4
ENCODING 147
SWIDTH 1750 0
DWIDTH 63 0
BBX 62 5 0 0
BITMAP
01fffffffffffe00
0fffffffffffffc0
3ffffffffffffff0
7000000000000038
8000000000000004
ENDCHAR
STARTCHAR OverParenExt1
ENCODING 148
SWIDTH 330 0
DWIDTH 12 0
BBX 11 5 0 0
BITMAP
03e0
1fe0
3fe0
6000
8000
ENDCHAR
STARTCHAR OverParenExt2
ENCODING 149
SWIDTH 200 0
DWIDTH 7 0
BBX 7 3 0 2
BITMAP
fe
fe
fe
ENDCHAR
STARTCHAR OverParenExt3
ENCODING 150
SWIDTH 330 0
DWIDTH 12 0
BBX 11 5 0 0
BITMAP
f800
ff00
ff80
00c0
0020
ENDCHAR
STARTCHAR OverBrace1
ENCODING 151
SWIDTH 700 0
DWIDTH 25 0
BBX 25 7 0 0
BITMAP
00080000
00180000
01ff8000
7fe7fe00
ffc3ff00
80000100
80000080
ENDCHAR
STARTCHAR OverBrace2
ENCODING 152
SWIDTH 1150 0
DWIDTH 41 0
BBX 42 7 0 0
BITMAP
000008000000
00001c000000
1ffff7fffc00
7fffe3ffff00
ffffc1ffff80
800000000080
800000000040
ENDCHAR
STARTCHAR OverBrace3
ENCODING 153
SWIDTH 1500 0
DWIDTH 54 0
BBX 54 7 0 0
BITMAP
00000020000000
00000078000000
3fffffdfffffe0
7fffff8ffffff0
ffffff07fffff8
80000000000008
80000000000004
ENDCHAR
STARTCHAR OverBrace4
ENCODING 154
SWIDTH 1850 0
DWIDTH 67 0
BBX 67 7 0 0
BITMAP
000000004000000000
00000001e000000000
1fffffffffffffff00
7fffffff3fffffff80
fffffffc0fffffffc0
800000000000000040
800000000000000020
ENDCHAR
STARTCHAR OverBraceExt1
ENCODING 155
SWIDTH 200 0
DWIDTH 7 0
BBX 7 4 0 0
BITMAP
1e
7e
fe
80
ENDCHAR
STARTCHAR OverBraceExt2
ENCODING 156
SWIDTH 200 0
DWIDTH 7 0
BBX 7 3 0 2
BITMAP
fe
fe
fe
ENDCHAR
STARTCHAR OverBraceExt3
ENCODING 157
SWIDTH 347 0
DWIDTH 12 0
BBX 12 5 0 2
BITMAP
0200
0f00
fff0
f9f0
e070
ENDCHAR
STARTCHAR OverBraceExt4
ENCODING 158
SWIDTH 200 0
DWIDTH 7 0
BBX 7 4 0 0
BITMAP
f0
fc
fe
02
ENDCHAR
STARTCHAR AngleArrowExt45
ENCODING 159
SWIDTH 280 0
DWIDTH 10 0
BBX 9 10 0 0
BITMAP
0080
0180
0300
0600
0c00
1800
3000
6000
c000
8000
ENDCHAR
STARTCHAR UnderParen1
ENCODING 160
SWIDTH 700 0
DWIDTH 25 0
BBX 24 5 0 0
BITMAP
800001
600006
3ffffc
0ffff0
01ff80
ENDCHAR
STARTCHAR UnderParen2
ENCODING 161
SWIDTH 1050 0
DWIDTH 38 0
BBX 37 5 0 0
BITMAP
8000000008
7000000070
3fffffffe0
0fffffff80
01fffffc00
ENDCHAR
STARTCHAR UnderParen3
ENCODING 162
SWIDTH 1400 0
DWIDTH 50 0
BBX 50 5 0 0
BITMAP
80000000000040
70000000000380
3fffffffffff00
0ffffffffffc00
01ffffffffe000
ENDCHAR
STARTCHAR UnderParen4
ENCODING 163
SWIDTH 1750 0
DWIDTH 63 0
BBX 62 5 0 0
BITMAP
8000000000000004
7000000000000038
3ffffffffffffff0
0fffffffffffffc0
01fffffffffffe00
ENDCHAR
STARTCHAR UnderParenExt1
ENCODING 164
SWIDTH 330 0
DWIDTH 12 0
BBX 11 5 0 0
BITMAP
8000
6000
3fe0
1fe0
03e0
ENDCHAR
STARTCHAR UnderParenExt2
ENCODING 165
SWIDTH 200 0
DWIDTH 7 0
BBX 7 3 0 0
BITMAP
fe
fe
fe
ENDCHAR
STARTCHAR UnderParenExt3
ENCODING 166
SWIDTH 330 0
DWIDTH 12 0
BBX 11 5 0 0
BITMAP
0020
00c0
ff80
ff00
f800
ENDCHAR
STARTCHAR UnderBrace1
ENCODING 167
SWIDTH 700 0
DWIDTH 25 0
BBX 25 7 0 -3
BITMAP
80000080
80000100
ffc3ff00
7fe7fe00
01ff8000
00180000
00080000
ENDCHAR
STARTCHAR UnderBrace2
ENCODING 168
SWIDTH 1150 0
DWIDTH 41 0
BBX 42 7 0 -3
BITMAP
800000000040
ffffc1ffff80
7fffe3ffff00
3ffff7fffe00
000036000000
000008000000
000008000000
ENDCHAR
STARTCHAR UnderBrace3
ENCODING 169
SWIDTH 1500 0
DWIDTH 54 0
BBX 54 7 0 -3
BITMAP
80000000000004
ffffff07fffff8
7fffff8ffffff0
3fffffdfffffe0
000000f8000000
00000020000000
00000020000000
ENDCHAR
STARTCHAR UnderBrace4
ENCODING 170
SWIDTH 1850 0
DWIDTH 67 0
BBX 67 7 0 -3
BITMAP
800000000000000020
fffffffc0fffffffc0
7fffffff3fffffff80
3fffffffffffffff00
00000001f000000000
00000000c000000000
000000004000000000
ENDCHAR
STARTCHAR UnderBraceExt1
ENCODING 171
SWIDTH 200 0
DWIDTH 7 0
BBX 7 4 0 0
BITMAP
80
fe
7e
1e
ENDCHAR
STARTCHAR UnderBraceExt2
ENCODING 172
SWIDTH 200 0
DWIDTH 7 0
BBX 7 3 0 0
BITMAP
fe
fe
fe
ENDCHAR
STARTCHAR UnderBraceExt3
ENCODING 173
SWIDTH 347 0
DWIDTH 12 0
BBX 12 6 0 -3
BITMAP
e070
f9f0
fff0
0f00
0600
0200
ENDCHAR
STARTCHAR UnderBraceExt4
ENCODING 174
SWIDTH 200 0
DWIDTH 7 0
BBX 7 4 0 0
BITMAP
02
fe
fc
f0
ENDCHAR
STARTCHAR AngleArrowExt135
ENCODING 175
SWIDTH 280 0
DWIDTH 10 0
BBX 9 10 0 0
BITMAP
8000
c000
6000
3000
1800
0c00
0600
0300
0180
0080
ENDCHAR
STARTCHAR OverWedge1
ENCODING 176
SWIDTH 700 0
DWIDTH 25 0
BBX 24 5 0 0
BITMAP
003c00
01ff80
1fc3f8
fc003f
c00003
ENDCHAR
STARTCHAR OverWedge2
ENCODING 177
SWIDTH 1050 0
DWIDTH 38 0
BBX 37 5 0 0
BITMAP
0000f80000
003fffc000
07fe03ff00
ff80000ff8
e000000038
ENDCHAR
STARTCHAR OverWedge3
ENCODING 178
SWIDTH 1400 0
DWIDTH 50 0
BBX 50 6 0 0
BITMAP
00000ff8000000
0001ffffe00000
007ff807ff8000
0ffe00001ffc00
ff800000007fc0
e00000000001c0
ENDCHAR
STARTCHAR OverWedge4
ENCODING 179
SWIDTH 1750 0
DWIDTH 63 0
BBX 62 6 0 0
BITMAP
0000003ff0000000
00001fffffe00000
000fffc00fffc000
07ffe000001fff80
ffe0000000001ffc
e00000000000001c
ENDCHAR
STARTCHAR Ellipsis
ENCODING 180
SWIDTH 1000 0
DWIDTH 36 0
BBX 28 4 4 -1
BITMAP
60060060
f00f00f0
f00f00f0
60060060
ENDCHAR
STARTCHAR CenterEllipsis
ENCODING 181
SWIDTH 1000 0
DWIDTH 36 0
BBX 28 4 4 7
BITMAP
60060060
f00f00f0
f00f00f0
60060060
ENDCHAR
STARTCHAR VertEllipsis
ENCODING 182
SWIDTH 239 0
DWIDTH 9 0
BBX 4 29 2 -1
BITMAP
60
f0
f0
60
00
00
00
00
00
00
00
00
00
60
f0
f0
60
00
00
00
00
00
00
00
00
60
f0
f0
60
ENDCHAR
STARTCHAR DiagEllipsis
ENCODING 183
SWIDTH 709 0
DWIDTH 26 0
BBX 21 21 2 2
BITMAP
000030
000078
000078
000030
000000
000000
000000
000000
000000
003000
007800
007800
003000
000000
000000
000000
000000
600000
f00000
f00000
600000
ENDCHAR
STARTCHAR BackDiagEllipsis
ENCODING 184
SWIDTH 709 0
DWIDTH 26 0
BBX 21 21 2 2
BITMAP
600000
f00000
f00000
600000
000000
000000
000000
000000
000000
003000
007800
007800
003000
000000
000000
000000
000000
000030
000078
000078
000030
ENDCHAR
STARTCHAR Ellipsis2
ENCODING 185
SWIDTH 1000 0
DWIDTH 36 0
BBX 28 4 4 -1
BITMAP
60060060
f00f00f0
f00f00f0
60060060
ENDCHAR
STARTCHAR CenterEllipsis2
ENCODING 186
SWIDTH 1000 0
DWIDTH 36 0
BBX 28 4 4 7
BITMAP
60060060
f00f00f0
f00f00f0
60060060
ENDCHAR
STARTCHAR VertEllipsis2
ENCODING 187
SWIDTH 239 0
DWIDTH 9 0
BBX 4 29 2 -1
BITMAP
60
f0
f0
60
00
00
00
00
00
00
00
00
00
60
f0
f0
60
00
00
00
00
00
00
00
00
60
f0
f0
60
ENDCHAR
STARTCHAR Dot
ENCODING 188
SWIDTH 335 0
DWIDTH 12 0
BBX 4 4 4 -1
BITMAP
60
f0
f0
60
ENDCHAR
STARTCHAR CenterDot
ENCODING 189
SWIDTH 335 0
DWIDTH 12 0
BBX 4 4 4 7
BITMAP
60
f0
f0
60
ENDCHAR
STARTCHAR BackPrime
ENCODING 190
SWIDTH 347 0
DWIDTH 12 0
BBX 8 15 2 2
BITMAP
60
f0
f0
f8
f8
78
3c
3c
1c
0e
0e
07
03
03
01
ENDCHAR
STARTCHAR DblBackPrime
ENCODING 191
SWIDTH 589 0
DWIDTH 21 0
BBX 17 15 2 2
BITMAP
607000
f07800
f8f800
f87c00
787c00
7c3c00
3c1e00
1e1e00
0e0e00
0f0700
070700
030300
038380
018180
008080
ENDCHAR
STARTCHAR UnderVee1
ENCODING 192
SWIDTH 700 0
DWIDTH 25 0
BBX 24 5 0 0
BITMAP
c00003
fc003f
1fc3f8
01ff80
003c00
ENDCHAR
STARTCHAR UnderVee2
ENCODING 193
SWIDTH 1050 0
DWIDTH 38 0
BBX 37 5 0 0
BITMAP
e000000038
ff80000ff8
07fe03ff00
003fffc000
0000f80000
ENDCHAR
STARTCHAR UnderVee3
ENCODING 194
SWIDTH 1400 0
DWIDTH 50 0
BBX 50 6 0 0
BITMAP
e00000000001c0
ff800000007fc0
1ffe00001ffe00
007ff807ff8000
0001ffffe00000
00000ffc000000
ENDCHAR
STARTCHAR UnderVee4
ENCODING 195
SWIDTH 1750 0
DWIDTH 63 0
BBX 62 6 0 0
BITMAP
e00000000000001c
ffe0000000001ffc
07ffe000001fff80
000fffc00fffc000
00001fffffe00000
0000003ff0000000
ENDCHAR
STARTCHAR UpPointer
ENCODING 196
SWIDTH 520 0
DWIDTH 19 0
BBX 14 7 2 6
BITMAP
0300
0780
0fc0
1fe0
3ff0
7ff8
fffc
ENDCHAR
STARTCHAR RightPointer
ENCODING 197
SWIDTH 310 0
DWIDTH 11 0
BBX 7 16 2 1
BITMAP
80
80
c0
e0
f0
f8
fc
fe
fe
fc
f8
f0
e0
c0
80
80
ENDCHAR
STARTCHAR DownPointer
ENCODING 198
SWIDTH 520 0
DWIDTH 19 0
BBX 14 7 2 6
BITMAP
fffc
7ff8
3ff0
1fe0
0fc0
0780
0300
ENDCHAR
STARTCHAR LeftPointer
ENCODING 199
SWIDTH 310 0
DWIDTH 11 0
BBX 8 16 2 1
BITMAP
01
02
06
0e
1e
3e
7e
fe
fe
7e
3e
1e
0e
06
02
01
ENDCHAR
STARTCHAR UpLHookExt
ENCODING 200
SWIDTH 235 0
DWIDTH 8 0
BBX 7 9 0 8
BITMAP
f8
fc
0e
06
06
06
0e
fc
f0
ENDCHAR
STARTCHAR UpRHookExt
ENCODING 201
SWIDTH 235 0
DWIDTH 8 0
BBX 7 10 1 8
BITMAP
1e
7e
e0
c0
c0
c0
c0
e0
7e
1e
ENDCHAR
STARTCHAR Nbspace
ENCODING 202
SWIDTH 189 0
DWIDTH 7 0
BBX 0 0 0 0
BITMAP
ENDCHAR
STARTCHAR XBox
ENCODING 203
SWIDTH 600 0
DWIDTH 22 0
BBX 17 17 2 0
BITMAP
ffff80
c00180
a00280
900480
880880
841080
822080
814080
808080
814080
822080
841080
880880
900480
a00280
c00180
ffff80
ENDCHAR
STARTCHAR SmileyFace
ENCODING 204
SWIDTH 537 0
DWIDTH 19 0
BBX 16 24 2 0
BITMAP
1ff8
301c
6006
6006
c003
c003
c003
ce73
ce73
ce73
c003
c003
c003
c003
c813
c813
cc23
c3c3
c003
e007
6006
6006
301c
1ff8
ENDCHAR
STARTCHAR StraightFace
ENCODING 205
SWIDTH 537 0
DWIDTH 19 0
BBX 16 24 2 0
BITMAP
1ff8
301c
6006
6006
c007
c003
c003
ce63
ce73
ce63
c003
c003
c003
c003
c003
cfe3
cfe3
c003
c003
c007
6006
6006
701c
1ff8
ENDCHAR
STARTCHAR FrownFace
ENCODING 206
SWIDTH 537 0
DWIDTH 19 0
BBX 16 24 2 0
BITMAP
1ff8
301c
6006
6006
c003
c003
c003
ce73
ce73
ce73
c003
c003
c003
c003
c3c3
cc23
c813
c813
c003
e007
6006
6006
301c
1ff8
ENDCHAR
STARTCHAR ShockFace
ENCODING 207
SWIDTH 570 0
DWIDTH 21 0
BBX 20 34 0 0
BITMAP
010400
010400
410420
410420
210440
210840
108880
108880
889900
440130
27fe40
0e0300
1c0180
180180
3800c0
3000c0
3000c0
31ccc0
31dcc0
31ccc0
3000c0
3000c0
3000c0
3070c0
3088c0
3104c0
3104c0
3104c0
3104c0
3888c0
187180
180180
0e0300
07fe00
ENDCHAR
STARTCHAR Strike1
ENCODING 208
SWIDTH 128 0
DWIDTH 5 0
BBX 4 11 0 4
BITMAP
30
30
30
20
60
60
60
40
c0
c0
c0
ENDCHAR
STARTCHAR Strike2
ENCODING 209
SWIDTH 181 0
DWIDTH 7 0
BBX 6 18 0 0
BITMAP
0c
0c
0c
08
18
18
18
10
30
30
20
60
60
60
40
c0
c0
c0
ENDCHAR
STARTCHAR Strike3
ENCODING 210
SWIDTH 228 0
DWIDTH 8 0
BBX 7 24 0 -3
BITMAP
02
06
06
06
04
0c
0c
0c
08
18
18
10
10
30
30
20
60
60
60
40
c0
c0
c0
80
ENDCHAR
STARTCHAR Strike4
ENCODING 211
SWIDTH 259 0
DWIDTH 9 0
BBX 9 28 0 -4
BITMAP
0180
0180
0180
0100
0300
0300
0200
0600
0600
0600
0400
0c00
0c00
0c00
1800
1800
1800
1000
3000
3000
3000
2000
6000
6000
4000
c000
c000
c000
ENDCHAR
STARTCHAR Strike5
ENCODING 212
SWIDTH 288 0
DWIDTH 10 0
BBX 10 32 0 -4
BITMAP
00c0
00c0
00c0
0080
0180
0180
0180
0300
0300
0300
0200
0600
0600
0600
0400
0c00
0c00
0800
1800
1800
1800
1000
3000
3000
3000
6000
6000
6000
4000
c000
c000
c000
ENDCHAR
STARTCHAR Strike6
ENCODING 213
SWIDTH 298 0
DWIDTH 11 0
BBX 10 36 0 -7
BITMAP
00c0
00c0
00c0
00c0
0180
0180
0180
0180
0300
0300
0300
0300
0600
0600
0600
0600
0c00
0c00
0c00
0c00
1800
1800
1800
1800
3000
3000
3000
3000
6000
6000
6000
6000
c000
c000
c000
c000
ENDCHAR
STARTCHAR KeyBar
ENCODING 214
SWIDTH 88 0
DWIDTH 3 0
BBX 8 5 -3 6
BITMAP
ff
ff
ff
ff
ff
ENDCHAR
STARTCHAR DownLHookExt
ENCODING 215
SWIDTH 235 0
DWIDTH 8 0
BBX 7 9 0 1
BITMAP
f8
fc
0e
06
06
06
0e
fc
f0
ENDCHAR
STARTCHAR DownRHookExt
ENCODING 216
SWIDTH 235 0
DWIDTH 8 0
BBX 7 9 1 1
BITMAP
1e
7e
e0
c0
c0
c0
e0
7e
3e
ENDCHAR
STARTCHAR Icos
ENCODING 217
SWIDTH 956 0
DWIDTH 34 0
BBX 32 30 1 -4
BITMAP
00010040
00030380
03028d80
02fc7180
01044280
01842280
01881280
01481480
00b00c80
00b3ffe0
01ffcc1f
1e310a02
e0491104
40891104
2105208c
11032052
0e02c0e1
0c014f5e
13fcffe0
0f3fe0c0
00c180c0
0081c0c0
00c260c0
00c25120
00445120
00644920
0069b520
005a4ee0
007c0600
00100000
ENDCHAR
STARTCHAR KernalIcon
ENCODING 218
SWIDTH 909 0
DWIDTH 33 0
BBX 31 31 1 -4
BITMAP
000ff000
00700c00
01800300
020000c0
0c020260
08030a30
11e4a610
21048608
21884a08
40c82a04
40d01204
c0b1fe02
80ff9832
8e322412
904a4422
88894242
85058192
86038d62
85f37f82
451fe204
40810304
40838304
2044c508
2044a488
10699490
086aaf30
0c780860
021000c0
01800300
00700c00
000ff000
ENDCHAR
STARTCHAR LightBulb
ENCODING 219
SWIDTH 688 0
DWIDTH 25 0
BBX 22 33 1 -5
BITMAP
001000
001000
081040
0c10c0
04fe40
838384
ce00cc
4c0064
180060
180030
300030
300030
300030
300030
300030
180060
1c0060
0c00c0
060080
030180
010300
018300
008200
008200
008200
008200
000000
00fe00
000000
000000
007c00
003c00
003800
ENDCHAR
STARTCHAR WarningSign
ENCODING 220
SWIDTH 675 0
DWIDTH 24 0
BBX 22 24 1 0
BITMAP
003800
007800
006c00
00cc00
00c600
008600
018300
010300
033900
023980
063880
0438c0
0c38c0
081060
181060
101020
301030
200010
200018
403818
40380c
80000c
800004
fffffc
ENDCHAR
STARTCHAR WatchIcon
ENCODING 221
SWIDTH 597 0
DWIDTH 21 0
BBX 18 26 2 -3
BITMAP
1ff800
1ff800
1ff800
1ff800
1ff800
1ff800
1ff800
300600
c0c300
c0c300
c0c300
c0c3c0
c7c3c0
c7c3c0
c003c0
c00300
c00300
c00300
300600
1ff800
1ff800
1ff800
1ff800
1ff800
1ff800
1ff800
ENDCHAR
STARTCHAR Cedilla
ENCODING 222
SWIDTH 209 0
DWIDTH 8 0
BBX 8 8 0 -8
BITMAP
10
30
3e
07
07
07
0e
fc
ENDCHAR
STARTCHAR Ogonek
ENCODING 223
SWIDTH 179 0
DWIDTH 6 0
BBX 7 5 0 -6
BITMAP
60
c0
c0
c6
78
ENDCHAR
STARTCHAR AltKey
ENCODING 224
SWIDTH 1174 0
DWIDTH 42 0
BBX 38 28 2 -5
BITMAP
fffffffffc
8000000004
8000000004
8000000004
8000000004
8000000004
803020ff84
8030200804
8050200804
8058200804
8048200804
8088200804
808c200804
8084200804
8184200804
8106200804
8106200804
83fe200804
8202200804
8203200804
8201200804
84013f8804
8000000004
8000000004
8000000004
8000000004
8000000004
fffffffffc
ENDCHAR
STARTCHAR CmdKey
ENCODING 225
SWIDTH 1318 0
DWIDTH 47 0
BBX 43 28 2 -5
BITMAP
ffffffffffe0
800000000020
800000000020
800000000020
800000000020
800000000020
81e18063f020
821180621820
8419c0e20820
840940a20420
840140a20420
840140a20420
840161a20420
840121220420
840121220420
840133220420
840112220420
840112220420
840912220420
84091e220820
82110c221820
81e10c23e020
800000000020
800000000020
800000000020
800000000020
800000000020
ffffffffffe0
ENDCHAR
STARTCHAR CtrlKey
ENCODING 226
SWIDTH 1379 0
DWIDTH 50 0
BBX 45 28 2 -5
BITMAP
fffffffffff8
800000000008
800000000008
800000000008
800000000008
800000000008
81f3fefc2008
821820822008
840820832008
840820812008
840020812008
840020812008
840020822008
840020862008
840020f82008
840020862008
840020822008
840020832008
840820832008
860820832008
821820832008
81f020813f88
800000000008
800000000008
800000000008
800000000008
800000000008
fffffffffff8
ENDCHAR
STARTCHAR DelKey
ENCODING 227
SWIDTH 1143 0
DWIDTH 41 0
BBX 37 28 2 -5
BITMAP
fffffffff8
8000000008
8000000008
8000000008
8000000008
8000000008
83f07f1008
8208401008
820c401008
8204401008
8204401008
8204401008
8206401008
8206401008
82067f1008
8206401008
8206401008
8204401008
8204401008
8204401008
8208401008
83f07f1f88
8000000008
8000000008
8000000008
8000000008
8000000008
fffffffff8
ENDCHAR
STARTCHAR EntKey
ENCODING 228
SWIDTH 1146 0
DWIDTH 41 0
BBX 37 28 2 -5
BITMAP
fffffffff8
8000000008
8000000008
8000000008
8000000008
8000000008
83f986ff88
8201860808
8201c60808
8201460808
8201460808
8201460808
8201260808
8201260808
83f9260808
8201360808
8201160808
8201160808
8201160808
82011e0808
82010e0808
83f90e0808
8000000008
8000000008
8000000008
8000000008
8000000008
fffffffff8
ENDCHAR
STARTCHAR EscKey
ENCODING 229
SWIDTH 1146 0
DWIDTH 41 0
BBX 37 28 2 -5
BITMAP
fffffffff8
8000000008
8000000008
8000000008
8000000008
8000000008
83f8703c08
8200884208
82010cc108
8201048108
8201008008
8201808008
8200c08008
83f8608008
8200308008
8200088008
82000c8008
8200048008
8201048108
8201048108
8201884208
83f8f03e08
8000000008
8000000008
8000000008
8000000008
8000000008
fffffffff8
ENDCHAR
STARTCHAR OptKey
ENCODING 230
SWIDTH 1187 0
DWIDTH 43 0
BBX 38 28 2 -5
BITMAP
fffffffffc
8000000004
8000000004
8000000004
8000000004
8000000004
81f0fc7fc4
8218820404
840c830404
8404810404
8404810404
8404830404
8404820404
8404fc0404
8404800404
8404800404
8404800404
8404800404
8404800404
860c800404
8318800404
81f0800404
8000000004
8000000004
8000000004
8000000004
8000000004
fffffffffc
ENDCHAR
STARTCHAR RetKey
ENCODING 231
SWIDTH 1174 0
DWIDTH 42 0
BBX 38 28 2 -5
BITMAP
fffffffffc
8000000004
8000000004
8000000004
8000000004
8000000004
83f0feff84
8208800804
820c800804
8204800804
8204800804
8204800804
820c800804
8218800804
83f0fe0804
8218800804
820c800804
820c800804
820c800804
8204800804
8204800804
8204fe0804
8000000004
8000000004
8000000004
8000000004
8000000004
fffffffffc
ENDCHAR
STARTCHAR ShftKey
ENCODING 232
SWIDTH 1448 0
DWIDTH 52 0
BBX 48 28 2 -5
BITMAP
ffffffffffff
800000000001
800000000001
800000000001
800000000001
800000000001
80f0813f7fc1
811881200401
820881200401
820c81200401
820081200401
830081200401
810081200401
808081200401
8060ff3e0401
803081200401
800881200401
800c81200401
820481200401
820c81200401
810881200401
80f081200401
800000000001
800000000001
800000000001
800000000001
800000000001
ffffffffffff
ENDCHAR
STARTCHAR SpcKey
ENCODING 233
SWIDTH 1187 0
DWIDTH 43 0
BBX 38 28 2 -5
BITMAP
fffffffffc
8000000004
8000000004
8000000004
8000000004
8000000004
80f0f81e04
8108862304
820c824104
8204834104
8200834004
8300824004
8180824004
8060fc4004
8030804004
8008804004
8004804004
8004804004
8204804104
8204804104
8108802304
80f0801e04
8000000004
8000000004
8000000004
8000000004
8000000004
fffffffffc
ENDCHAR
STARTCHAR TabKey
ENCODING 234
SWIDTH 1177 0
DWIDTH 42 0
BBX 38 28 2 -5
BITMAP
fffffffffc
8000000004
8000000004
8000000004
8000000004
8000000004
8ff8c07e04
8080a04104
8080a04084
8081a04084
8081304084
8081104084
8083104184
8082184104
8082087f04
8082084084
80840c40c4
8087fc4044
8084044044
8088064044
8088024084
8098037f04
8000000004
8000000004
8000000004
8000000004
8000000004
fffffffffc
ENDCHAR
STARTCHAR LKeyBracket
ENCODING 235
SWIDTH 245 0
DWIDTH 9 0
BBX 10 38 -3 -10
BITMAP
07c0
0400
0400
0400
0400
0400
0400
0400
0400
0400
0400
0400
0400
0400
0400
0400
fc00
fc00
fc00
fc00
fc00
0400
0400
0400
0400
0400
0400
0400
0400
0400
0400
0400
0400
0400
0400
0400
0400
07c0
ENDCHAR
STARTCHAR RKeyBracket
ENCODING 236
SWIDTH 245 0
DWIDTH 9 0
BBX 5 38 1 -10
BITMAP
f8
08
08
08
08
08
08
08
08
08
08
08
08
08
08
08
08
08
08
08
08
08
08
08
08
08
08
08
08
08
08
08
08
08
08
08
08
f8
ENDCHAR
STARTCHAR CloverLeaf
ENCODING 237
SWIDTH 750 0
DWIDTH 27 0
BBX 23 23 2 0
BITMAP
3c0078
430084
810102
810102
810102
810102
410104
7ffffc
010100
010100
010100
010100
010100
010100
010100
7ffffc
410104
810102
810102
810102
810102
430184
3e0078
ENDCHAR
STARTCHAR DottedSquare
ENCODING 238
SWIDTH 764 0
DWIDTH 28 0
BBX 24 24 2 0
BITMAP
fc3c3f
800001
800001
800001
800001
800001
000000
000000
000000
000000
800001
800001
800001
800001
000000
000000
000000
000000
800001
800001
800001
800001
800001
fc3c3f
ENDCHAR
STARTCHAR RoundSpaceIndicator
ENCODING 239
SWIDTH 250 0
DWIDTH 9 0
BBX 7 4 1 -4
BITMAP
82
84
cc
78
ENDCHAR
STARTCHAR CommandKey
ENCODING 240
SWIDTH 2643 0
DWIDTH 95 0
BBX 91 28 2 -5
BITMAP
ffffffffffffffffffffffe0
800000000000000000000020
800000000000000000000020
800000000000000000000020
800000000000000000000020
800000000000000000000020
83e07c300c60180c0c23f020
8210c6380c6018140c221820
841983380c7018140e220820
840903281c5038160a220c20
84010128145028320a220420
8401012c145028220a220420
840101241458682209220420
840101243448486309220420
840101242448484109220420
84010126244c484109a20420
840101226444c8c188a20420
84010122444488ff88a20420
840903234444888088a20420
8419832144468880c8e20820
8210c621c443890048621820
81e07c21844309004863f020
800000000000000000000020
800000000000000000000020
800000000000000000000020
800000000000000000000020
800000000000000000000020
ffffffffffffffffffffffe0
ENDCHAR
STARTCHAR ControlKey
ENCODING 241
SWIDTH 2327 0
DWIDTH 84 0
BBX 79 28 2 -5
BITMAP
fffffffffffffffffffe
80000000000000000002
80000000000000000002
80000000000000000002
80000000000000000002
80000000000000000002
81f07c384ff9fc1f8802
8218c228408106108802
8608832840810220c802
84098128408103204802
8401812c408102204802
84010124408102204802
84010124408102204802
8401012640810c204802
840101224081f8204802
84010122408106204802
84010123408106204802
84010121408102204802
84098121408102204802
8609832140810220c802
8310c621c08103108802
81f07c20c081030f0fe2
80000000000000000002
80000000000000000002
80000000000000000002
80000000000000000002
80000000000000000002
fffffffffffffffffffe
ENDCHAR
STARTCHAR DeleteKey
ENCODING 242
SWIDTH 1890 0
DWIDTH 68 0
BBX 64 28 2 -5
BITMAP
ffffffffffffffff
8000000000000001
8000000000000001
8000000000000001
8000000000000001
8000000000000001
83f0fe407f7fcfe1
8218804040040801
820c804040040801
8204804040040801
8204804040040801
8204804040040801
8204804040040801
8204804040040801
8204fe407f040fc1
8204804040040801
8204804040040801
8204804040040801
8204804040040801
820c804040040801
8218804040040801
83f0fe7e7f040fe1
8000000000000001
8000000000000001
8000000000000001
8000000000000001
8000000000000001
ffffffffffffffff
ENDCHAR
STARTCHAR EnterKey
ENCODING 243
SWIDTH 1668 0
DWIDTH 60 0
BBX 56 28 2 -5
BITMAP
ffffffffffffff
80000000000001
80000000000001
80000000000001
80000000000001
80000000000001
83fb84ff9fcfc1
82028408100821
82028408100831
8202c408100811
82024408100811
82024408100811
82024408100821
82026408100861
83f224081f8fc1
82022408100861
82023408100821
82021408100831
82021408100831
82021c08100831
82020c08100811
83fa0c081fc811
80000000000001
80000000000001
80000000000001
80000000000001
80000000000001
ffffffffffffff
ENDCHAR
STARTCHAR EscapeKey
ENCODING 244
SWIDTH 2000 0
DWIDTH 72 0
BBX 68 27 2 -4
BITMAP
fffffffffffffffff0
800000000000000010
800000000000000010
800000000000000010
800000000000000010
800000000000000010
83f8f83e0301f0fe10
82010c420301088010
820304830281048010
820304810481048010
820300800481048010
820300800441048010
820180800841048010
8200c0800841088010
83f070800821f0fe10
820018801021008010
820004801fe1008010
820204811011008010
820204812011008010
82030cc32011008010
8201fc7e2019008010
83f9f87e600900fe10
800000000000000010
800000000000000010
800000000000000010
800000000000000010
fffffffffffffffff0
ENDCHAR
STARTCHAR OptionKey
ENCODING 245
SWIDTH 1869 0
DWIDTH 67 0
BBX 63 28 2 -5
BITMAP
fffffffffffffffe
8000000000000002
8000000000000002
8000000000000002
8000000000000002
8000000000000002
81f0fc7fc83c1842
8218820408421842
8408810408831c42
840c810408811442
840c810408811442
840c810408811442
840c820408811242
840cfc0408811242
840c800408811242
840c800408811342
840c800408811142
840c800408811142
8408800408811142
8608800408c310c2
82188004084210c2
81e08004083c10c2
8000000000000002
8000000000000002
8000000000000002
8000000000000002
8000000000000002
fffffffffffffffe
ENDCHAR
STARTCHAR ReturnKey
ENCODING 246
SWIDTH 2015 0
DWIDTH 73 0
BBX 68 27 2 -4
BITMAP
fffffffffffffffff0
800000000000000010
800000000000000010
800000000000000010
800000000000000010
800000000000000010
83f0feff9013f0c210
82088008101208c210
820c800810120ce210
82048008101204a210
82048008101204a210
82048008101204a210
820880081012089210
821880081012189210
83e0fe081013f09210
821880081012189a10
820880081012088a10
820c800810120c8a10
820c800810120c8a10
820c800810320c8e10
820c80080862048610
8204fe0807c2048610
800000000000000010
800000000000000010
800000000000000010
800000000000000010
fffffffffffffffff0
ENDCHAR
STARTCHAR ShiftKey
ENCODING 247
SWIDTH 1563 0
DWIDTH 56 0
BBX 52 28 2 -5
BITMAP
fffffffffffff0
80000000000010
80000000000010
80000000000010
80000000000010
80000000000010
80f18133f7fc10
81198132004010
82098132004010
820d8132004010
82018132004010
82018132004010
81018132004010
80818132004010
8061ff33e04010
80318132004010
80098132004010
800d8132004010
820d8132004010
820d8132004010
81198132004010
80f18132004010
80000000000010
80000000000010
80000000000010
80000000000010
80000000000010
fffffffffffff0
ENDCHAR
STARTCHAR SpaceKey
ENCODING 248
SWIDTH 1699 0
DWIDTH 61 0
BBX 57 28 2 -5
BITMAP
ffffffffffffff80
8000000000000080
8000000000000080
8000000000000080
8000000000000080
8000000000000080
81f0fc0c07c7f080
8308860c04640080
8208821408240080
8208831208240080
8200811208040080
8200832208040080
8100822308040080
8180862108040080
8060fc610807f080
8030804188040080
8008804088040080
800c80ff88040080
820c8080c8240080
820c808048240080
8318818044640080
81f0810067c7f080
8000000000000080
8000000000000080
8000000000000080
8000000000000080
8000000000000080
ffffffffffffff80
ENDCHAR
STARTCHAR Mod1Key
ENCODING 249
SWIDTH 1543 0
DWIDTH 56 0
BBX 51 28 2 -5
BITMAP
ffffffffffffe0
80000000000020
80000000000020
80000000000020
80000000000020
80000000000020
860183e0fc0420
86018430861c20
87038818823420
85028808832420
85028808810420
85828808810420
84868808810420
84848808810420
84848808810420
84c48808810420
84488808810420
84488808810420
84488808810420
84788818820420
84308430860420
843083e0f80420
80000000000020
80000000000020
80000000000020
80000000000020
80000000000020
ffffffffffffe0
ENDCHAR
STARTCHAR Mod2Key
ENCODING 250
SWIDTH 1655 0
DWIDTH 60 0
BBX 55 28 2 -5
BITMAP
fffffffffffffe
80000000000002
80000000000002
80000000000002
80000000000002
80000000000002
860183e0f80f02
860184308618c2
87038818823042
85028808823042
85028808830042
85828808830082
84868808810082
84848808810182
84848808810102
84c48808810202
84488808810602
84488808830c02
84488808820802
84788818821802
84308430843002
843083e0f83fc2
80000000000002
80000000000002
80000000000002
80000000000002
80000000000002
fffffffffffffe
ENDCHAR
STARTCHAR RKeyBracket2
ENCODING 251
SWIDTH 245 0
DWIDTH 9 0
BBX 5 38 2 -10
BITMAP
f8
80
80
80
80
80
80
80
80
80
80
80
80
80
80
80
80
80
80
80
80
80
80
80
80
80
80
80
80
80
80
80
80
80
80
80
80
f8
ENDCHAR
STARTCHAR LUpHookExt
ENCODING 252
SWIDTH 533 0
DWIDTH 19 0
BBX 9 7 1 0
BITMAP
c180
c180
c180
c180
6380
7f00
3e00
ENDCHAR
STARTCHAR RUpHookExt
ENCODING 253
SWIDTH 240 0
DWIDTH 9 0
BBX 9 7 1 0
BITMAP
c180
c180
c180
c180
6380
7f00
3e00
ENDCHAR
STARTCHAR LDownHookExt
ENCODING 254
SWIDTH 240 0
DWIDTH 9 0
BBX 9 7 0 0
BITMAP
3e00
7f00
e300
c180
c180
c180
c180
ENDCHAR
STARTCHAR RDownHookExt
ENCODING 255
SWIDTH 0 0
DWIDTH 0 0
BBX 9 7 0 0
BITMAP
3e00
7f00
e300
c180
c180
c180
c180
ENDCHAR
ENDFONT
